<?xml version="1.0" encoding="UTF-8"?>
<svg xmlns="http://www.w3.org/2000/svg" xmlns:xlink="http://www.w3.org/1999/xlink" viewBox="0 0 512 512" width="512px" height="512px">
<g id="surface154646053">
<path style=" stroke:none;fill-rule:nonzero;fill:rgb(100%,100%,100%);fill-opacity:1;" d="M 245.761719 10.238281 L 245.761719 31.679688 C 231.601562 34.078125 219.078125 41.320312 209.921875 51.679688 C 208.761719 51.519531 207.320312 51.199219 204.800781 51.199219 C 171 51.199219 143.359375 78.839844 143.359375 112.640625 C 143.359375 120.28125 146.519531 127 150.640625 131.800781 C 154.761719 136.601562 159.71875 139.761719 164.320312 142.082031 C 165.960938 142.921875 167.519531 143.558594 169.121094 144.160156 C 169.761719 147.601562 172.078125 150.441406 175.28125 151.761719 C 178.480469 153.039062 182.160156 152.640625 185 150.679688 C 185 150.679688 210.121094 133.121094 256 133.121094 C 301.878906 133.121094 327 150.679688 327 150.679688 C 329.839844 152.679688 333.519531 153.082031 336.71875 151.761719 C 339.960938 150.441406 342.28125 147.601562 342.921875 144.160156 C 344.480469 143.558594 346.039062 142.921875 347.679688 142.082031 C 352.28125 139.761719 357.238281 136.601562 361.359375 131.800781 C 365.480469 127 368.640625 120.28125 368.640625 112.640625 C 368.640625 78.839844 341 51.199219 307.199219 51.199219 C 304.679688 51.199219 303.238281 51.519531 302.078125 51.679688 C 292.921875 41.320312 280.398438 34.082031 266.238281 31.679688 L 266.238281 10.242188 Z M 256 51.199219 C 278.71875 51.199219 296.960938 69.441406 296.960938 92.160156 C 296.960938 101.039062 294 109.039062 289.160156 115.71875 C 279.359375 113.878906 268.28125 112.640625 256 112.640625 C 243.71875 112.640625 232.640625 113.878906 222.839844 115.71875 C 218 109.039062 215.039062 101.039062 215.039062 92.160156 C 215.039062 69.441406 233.28125 51.199219 256 51.199219 Z M 197.921875 72.359375 C 195.800781 78.601562 194.558594 85.238281 194.558594 92.160156 C 194.558594 102.640625 197.28125 112.480469 201.960938 121.121094 C 195 123.359375 189.121094 125.679688 184.640625 127.800781 C 182.839844 127.398438 178.519531 126.359375 173.601562 123.839844 C 170.519531 122.28125 167.800781 120.320312 166.160156 118.398438 C 164.519531 116.519531 163.839844 115.039062 163.839844 112.640625 C 163.839844 92.28125 178.519531 75.601562 197.921875 72.359375 Z M 314.078125 72.359375 C 333.480469 75.601562 348.160156 92.28125 348.160156 112.640625 C 348.160156 115.039062 347.480469 116.519531 345.839844 118.398438 C 344.199219 120.320312 341.480469 122.28125 338.398438 123.839844 C 333.480469 126.359375 329.160156 127.398438 327.359375 127.800781 C 322.878906 125.679688 317 123.359375 310.039062 121.121094 C 314.71875 112.480469 317.441406 102.640625 317.441406 92.160156 C 317.441406 85.238281 316.199219 78.601562 314.082031 72.359375 Z M 256 143.359375 C 159.839844 143.359375 81.921875 221.28125 81.921875 317.441406 C 81.921875 413.601562 159.839844 491.519531 256 491.519531 C 352.160156 491.519531 430.078125 413.601562 430.078125 317.441406 C 430.078125 221.28125 352.160156 143.359375 256 143.359375 Z M 187.039062 203.320312 L 217.558594 233.761719 C 229.28125 228.359375 242.28125 225.28125 256 225.28125 C 269.480469 225.28125 282.519531 228.359375 294.398438 233.839844 L 324.960938 203.320312 L 332 208.199219 C 367.761719 233.121094 389.121094 273.960938 389.121094 317.441406 C 389.121094 347.921875 379.039062 376.640625 359.960938 400.480469 L 343.960938 387.679688 C 360.082031 367.519531 368.640625 343.238281 368.640625 317.441406 C 368.640625 283.519531 353.238281 251.480469 327.039062 230.121094 L 312.441406 244.800781 C 319.921875 250.601562 326.679688 257.519531 332.199219 265.601562 L 315.28125 277.121094 C 310.480469 270.121094 304.558594 264.160156 297.878906 259.359375 L 256 301.199219 L 214.160156 259.359375 C 196.121094 272.398438 184.320312 293.519531 184.320312 317.441406 C 184.320312 345.960938 201.121094 370.558594 225.28125 382.082031 L 225.28125 317.441406 L 276.480469 317.441406 L 276.480469 337.921875 L 245.761719 337.921875 L 245.761719 348.160156 L 276.480469 348.160156 L 276.480469 368.640625 L 245.761719 368.640625 L 245.761719 388.320312 C 249.121094 388.800781 252.519531 389.121094 256 389.121094 C 279.398438 389.121094 301.398438 377.601562 314.839844 358.320312 L 331.640625 370.039062 C 314.359375 394.839844 286.082031 409.601562 256 409.601562 C 252.519531 409.601562 249.121094 409.359375 245.761719 409 L 245.761719 419.839844 L 225.28125 419.839844 L 225.28125 404.199219 C 189.558594 391.519531 163.839844 357.480469 163.839844 317.441406 C 163.839844 287.878906 177.878906 261.601562 199.519531 244.761719 L 184.921875 230.121094 C 158.761719 251.480469 143.359375 283.519531 143.359375 317.441406 C 143.359375 343.242188 151.921875 367.519531 168.039062 387.679688 L 152.039062 400.480469 C 132.960938 376.640625 122.878906 347.921875 122.878906 317.441406 C 122.878906 273.960938 144.242188 233.121094 180 208.199219 Z M 256 245.761719 C 248.039062 245.761719 240.441406 247.121094 233.28125 249.519531 L 256 272.238281 L 278.679688 249.558594 C 271.441406 247.160156 263.839844 245.761719 256 245.761719 Z M 256 245.761719 "/>
</g>
</svg>
