<?xml version="1.0" encoding="UTF-8"?>
<svg xmlns="http://www.w3.org/2000/svg" xmlns:xlink="http://www.w3.org/1999/xlink" viewBox="0 0 512 512" width="512px" height="512px">
<g id="surface154649742">
<path style=" stroke:none;fill-rule:nonzero;fill:rgb(100%,100%,100%);fill-opacity:1;" d="M 122.878906 30.71875 C 72.105469 30.71875 30.71875 72.105469 30.71875 122.878906 L 30.71875 389.121094 C 30.71875 439.894531 72.105469 481.28125 122.878906 481.28125 L 389.121094 481.28125 C 439.894531 481.28125 481.28125 439.894531 481.28125 389.121094 L 481.28125 122.878906 C 481.28125 72.105469 439.894531 30.71875 389.121094 30.71875 Z M 122.878906 51.199219 L 389.121094 51.199219 C 428.824219 51.199219 460.800781 83.175781 460.800781 122.878906 L 460.800781 389.121094 C 460.800781 428.824219 428.824219 460.800781 389.121094 460.800781 L 122.878906 460.800781 C 83.175781 460.800781 51.199219 428.824219 51.199219 389.121094 L 51.199219 122.878906 C 51.199219 83.175781 83.175781 51.199219 122.878906 51.199219 Z M 389.121094 71.679688 C 377.902344 71.679688 368.640625 80.941406 368.640625 92.160156 L 368.640625 122.878906 C 368.640625 134.097656 377.902344 143.359375 389.121094 143.359375 L 419.839844 143.359375 C 431.058594 143.359375 440.320312 134.097656 440.320312 122.878906 L 440.320312 92.160156 C 440.320312 80.941406 431.058594 71.679688 419.839844 71.679688 Z M 389.121094 92.160156 L 419.839844 92.160156 L 419.839844 122.878906 L 389.121094 122.878906 Z M 256 122.878906 C 218.4375 122.878906 184.484375 138.660156 160.238281 163.839844 L 81.921875 163.839844 C 76.265625 163.839844 71.679688 168.425781 71.679688 174.078125 L 71.679688 378.878906 C 71.679688 412.6875 99.3125 440.320312 133.121094 440.320312 L 378.878906 440.320312 C 412.6875 440.320312 440.320312 412.6875 440.320312 378.878906 L 440.320312 174.078125 C 440.320312 168.425781 435.734375 163.839844 430.078125 163.839844 L 351.761719 163.839844 C 327.515625 138.660156 293.5625 122.878906 256 122.878906 Z M 256 143.359375 C 318.191406 143.359375 368.640625 193.808594 368.640625 256 C 368.640625 318.191406 318.191406 368.640625 256 368.640625 C 193.808594 368.640625 143.359375 318.191406 143.359375 256 C 143.359375 193.808594 193.808594 143.359375 256 143.359375 Z M 256 163.839844 C 254.554688 163.828125 253.125 164.121094 251.800781 164.699219 C 203.078125 167.027344 163.839844 206.703125 163.839844 256 C 163.839844 306.785156 205.226562 348.160156 256 348.160156 C 306.773438 348.160156 348.160156 306.785156 348.160156 256 C 348.160156 206.71875 308.945312 167.050781 260.238281 164.699219 C 258.902344 164.113281 257.457031 163.820312 256 163.839844 Z M 92.160156 184.320312 L 144.058594 184.320312 C 130.726562 205.046875 122.878906 229.621094 122.878906 256 C 122.878906 329.304688 182.695312 389.121094 256 389.121094 C 329.304688 389.121094 389.121094 329.304688 389.121094 256 C 389.121094 229.621094 381.273438 205.046875 367.941406 184.320312 L 419.839844 184.320312 L 419.839844 378.878906 C 419.839844 401.617188 401.617188 419.839844 378.878906 419.839844 L 133.121094 419.839844 C 110.382812 419.839844 92.160156 401.617188 92.160156 378.878906 Z M 256 184.320312 C 295.707031 184.320312 327.679688 216.28125 327.679688 256 C 327.679688 295.71875 295.707031 327.679688 256 327.679688 C 216.292969 327.679688 184.320312 295.71875 184.320312 256 C 184.320312 216.28125 216.292969 184.320312 256 184.320312 Z M 256 184.320312 "/>
</g>
</svg>
